<svg viewBox="0 0 100 100" xmlns="http://www.w3.org/2000/svg"><defs><clipPath id="r"><rect width="100" height="100" rx="22"/></clipPath></defs><g clip-path="url(#r)"><rect width="100" height="100" fill="#1f2733"/><rect x="0" y="0" width="25" height="54" fill="#f6f8fb"/><rect x="0" y="54" width="25" height="46" fill="#0b0e12"/><rect x="25" y="0" width="1" height="100" fill="#000" opacity="0.25"/><g transform="translate(13,3) scale(0.95)"><g fill="#f6f8fb"><circle cx="50" cy="22" r="12.5"/><path d="M 36 39 C 36 34 64 34 64 39 C 64 43 60 44 56 44 L 44 44 C 40 44 36 43 36 39 Z"/><path d="M 50 43 C 45 43 43 46 44 50 C 39 58 33 67 29 75 L 71 75 C 67 67 61 58 56 50 C 57 46 55 43 50 43 Z"/><rect x="21" y="74" width="58" height="14" rx="5"/></g></g></g></svg>